HIERARCHY
ROOT SpineBase
{
  OFFSET 0.000000 0.000000 0.000000
  CHANNELS 6 Xposition Yposition Zposition Zrotation Xrotation Yrotation
  JOINT SpineMid
  {
    OFFSET -0.000000 29.874596 0.000000
    CHANNELS 3 Zrotation Xrotation Yrotation
    JOINT SpineShoulder
    {
      OFFSET 0.300311 22.402678 -1.369618
      CHANNELS 3 Zrotation Xrotation Yrotation
      JOINT Neck
      {
        OFFSET 0.215891 7.497380 -0.936508
        CHANNELS 3 Zrotation Xrotation Yrotation
        JOINT Head
        {
          OFFSET 0.138522 11.307363 5.241760
          CHANNELS 3 Zrotation Xrotation Yrotation
          End Site
          {
            OFFSET 0 0 0
          }
        }
      }
      JOINT ShoulderLeft
      {
        OFFSET -3.927393 -6.114429 -12.259279
        CHANNELS 3 Zrotation Xrotation Yrotation
        JOINT ElbowLeft
        {
          OFFSET -7.385482 -23.129327 -10.306462
          CHANNELS 3 Zrotation Xrotation Yrotation
          JOINT WristLeft
          {
            OFFSET -1.241377 -21.030978 -7.473977
            CHANNELS 3 Zrotation Xrotation Yrotation
            JOINT HandLeft
            {
              OFFSET -1.611607 -3.890189 0.910685
              CHANNELS 3 Zrotation Xrotation Yrotation
              JOINT HandTipLeft
              {
                OFFSET -1.270085 -4.630252 -0.488085
                CHANNELS 3 Zrotation Xrotation Yrotation
                End Site
                {
                  OFFSET 0 0 0
                }
              }
              JOINT ThumbLeft
              {
                OFFSET 1.914888 -0.211423 -0.004637
                CHANNELS 3 Zrotation Xrotation Yrotation
                End Site
                {
                  OFFSET 0 0 0
                }
              }
            }
          }
        }
      }
      JOINT ShoulderRight
      {
        OFFSET 8.397854 -10.226992 15.152724
        CHANNELS 3 Zrotation Xrotation Yrotation
        JOINT ElbowRight
        {
          OFFSET -8.485166 -17.420792 -19.805115
          CHANNELS 3 Zrotation Xrotation Yrotation
          JOINT WristRight
          {
            OFFSET -8.667750 -20.384221 -18.084354
            CHANNELS 3 Zrotation Xrotation Yrotation
            JOINT HandRight
            {
              OFFSET -1.623582 -4.986942 -4.821975
              CHANNELS 3 Zrotation Xrotation Yrotation
              JOINT HandTipRight
              {
                OFFSET -1.110696 -2.126487 -1.419072
                CHANNELS 3 Zrotation Xrotation Yrotation
                End Site
                {
                  OFFSET 0 0 0
                }
              }
              JOINT ThumbRight
              {
                OFFSET 0.824467 -0.057937 -1.582959
                CHANNELS 3 Zrotation Xrotation Yrotation
                End Site
                {
                  OFFSET 0 0 0
                }
              }
            }
          }
        }
      }
    }
  }
  JOINT HipLeft
  {
    OFFSET -2.235888 1.083520 -7.692336
    CHANNELS 3 Zrotation Xrotation Yrotation
    JOINT KneeLeft
    {
      OFFSET -9.777940 -25.327966 -2.323033
      CHANNELS 3 Zrotation Xrotation Yrotation
      JOINT AnkleLeft
      {
        OFFSET -1.439986 -23.654911 10.723469
        CHANNELS 3 Zrotation Xrotation Yrotation
        JOINT FootLeft
        {
          OFFSET 7.739278 -2.352572 -4.100367
          CHANNELS 3 Zrotation Xrotation Yrotation
          End Site
          {
            OFFSET 0 0 0
          }
        }
      }
    }
  }
  JOINT HipRight
  {
    OFFSET 3.345298 0.234131 1.048442
    CHANNELS 3 Zrotation Xrotation Yrotation
    JOINT KneeRight
    {
      OFFSET 1.335881 -24.129159 6.903771
      CHANNELS 3 Zrotation Xrotation Yrotation
      JOINT AnkleRight
      {
        OFFSET -11.824819 -19.338757 2.214463
        CHANNELS 3 Zrotation Xrotation Yrotation
        JOINT FootRight
        {
          OFFSET 0.488674 -8.380698 -3.710146
          CHANNELS 3 Zrotation Xrotation Yrotation
          End Site
          {
            OFFSET 0 0 0
          }
        }
      }
    }
  }
}
MOTION
Frames: 15
Frame Time: 0.033333
-59.190876 55.563563 345.500012 0.000000 0.000000 -57.440841 -0.000000 -0.000000 57.440841 -0.000000 0.000000 0.000000 -0.000000 0.000000 0.000000 0.000000 0.000000 0.000000 -0.000000 0.000000 0.000000 -0.000000 0.000000 0.000000 -0.000000 0.000000 0.000000 -0.000000 0.000000 0.000000 0.000000 0.000000 0.000000 0.000000 0.000000 0.000000 -0.000000 0.000000 0.000000 -0.000000 0.000000 0.000000 -0.000000 0.000000 0.000000 -0.000000 0.000000 0.000000 0.000000 0.000000 0.000000 0.000000 0.000000 0.000000 -0.000000 -0.000000 57.440841 -0.000000 0.000000 0.000000 -0.000000 0.000000 0.000000 0.000000 0.000000 0.000000 -0.000000 -0.000000 57.440841 -0.000000 0.000000 0.000000 -0.000000 0.000000 0.000000 0.000000 0.000000 0.000000
-59.851853 56.142278 344.434727 -0.211489 0.480659 -58.678218 -0.492272 0.288532 58.653747 0.179218 -0.135780 -0.002396 0.042234 -0.915289 0.031938 0.000000 0.000000 0.000000 4.888780 -4.785010 -0.668313 3.058253 -1.999647 -1.524733 -2.338271 0.201173 6.268303 7.719364 -1.436579 -3.499693 0.000000 0.000000 0.000000 0.000000 0.000000 0.000000 1.334265 -1.728450 -1.024185 -0.013262 -2.492325 1.438968 2.175640 -17.696798 4.558195 -0.883894 14.218445 -1.601582 0.000000 0.000000 0.000000 0.000000 0.000000 0.000000 3.138488 1.616270 58.914916 -4.861634 2.175668 -1.161749 1.328696 -2.664017 -4.129478 0.000000 0.000000 0.000000 2.129238 -3.156547 58.048379 1.895846 8.799600 -2.933449 8.565544 -4.569135 0.646666 0.000000 0.000000 0.000000
-60.316580 56.621550 343.659030 -0.264998 0.727815 -59.698644 -0.985766 0.512114 59.662704 0.325429 -0.205168 0.003043 0.161110 -2.550164 -0.012676 0.000000 0.000000 0.000000 9.553889 -9.100107 -0.978888 5.824711 -4.344594 -2.781121 -5.944450 1.349363 11.887386 13.911809 -3.345261 -6.452898 0.000000 0.000000 0.000000 0.000000 0.000000 0.000000 2.311787 -2.998770 -1.867735 0.196192 -5.437885 3.032461 8.650991 -39.040199 12.430029 -1.884115 33.915990 -3.804952 0.000000 0.000000 0.000000 0.000000 0.000000 0.000000 5.500393 2.919495 60.117102 -8.664795 4.220881 -1.964860 1.856432 -5.174404 -7.822914 0.000000 0.000000 0.000000 2.956013 -5.577843 58.537315 3.903341 15.082385 -5.306163 16.483378 -8.367533 2.023759 0.000000 0.000000 0.000000
-60.585057 57.001379 343.172921 -0.157420 0.736074 -60.457579 -1.469284 0.675127 60.419053 0.437157 -0.207375 0.014849 0.116222 -3.409150 -0.049954 0.000000 0.000000 0.000000 13.901636 -12.805024 -1.043486 8.051944 -6.748766 -3.610347 -9.924003 2.508869 17.053312 18.471183 -4.980585 -9.084206 0.000000 0.000000 0.000000 0.000000 0.000000 0.000000 2.945070 -3.800348 -2.569300 0.649363 -8.869881 4.821857 18.616317 -53.927348 22.632221 -2.470792 48.559404 -4.504619 0.000000 0.000000 0.000000 0.000000 0.000000 0.000000 7.096196 3.814923 61.038543 -11.505130 6.122894 -2.534614 1.746543 -7.456330 -10.699721 0.000000 0.000000 0.000000 2.591118 -7.501607 58.765857 5.970262 19.160303 -7.066055 23.651715 -11.752280 3.703150 0.000000 0.000000 0.000000
-60.657284 57.281764 342.976400 0.112793 0.502289 -60.908829 -1.933037 0.784389 60.875207 0.513319 -0.142151 0.031591 -0.015413 -3.977946 -0.110649 0.000000 0.000000 0.000000 17.840784 -15.815954 -0.995607 9.670084 -9.018334 -3.955217 -13.680277 3.172695 21.839446 21.808576 -6.176976 -11.596963 0.000000 0.000000 0.000000 0.000000 0.000000 0.000000 3.245227 -4.127470 -3.157334 1.372921 -12.822069 6.864310 26.325324 -60.437941 29.651901 -3.641381 54.992798 -2.551178 0.000000 0.000000 0.000000 0.000000 0.000000 0.000000 7.941781 4.231145 61.665259 -13.443891 7.886572 -2.960819 1.156288 -9.473843 -12.459821 0.000000 0.000000 0.000000 1.073663 -9.071903 58.626544 8.049616 21.290002 -8.170373 30.119564 -15.185399 5.467738 0.000000 0.000000 0.000000
-60.533261 57.462706 343.069467 0.545537 0.025692 -61.005321 -2.368798 0.848510 60.985681 0.553175 -0.009591 0.051938 -0.234375 -4.250197 -0.195505 0.000000 0.000000 0.000000 21.292822 -18.102048 -0.972327 10.745411 -11.086759 -3.824318 -16.899730 3.131114 26.274614 24.316694 -6.978188 -14.102267 0.000000 0.000000 0.000000 0.000000 0.000000 0.000000 3.222904 -3.977566 -3.649805 2.405474 -17.324706 9.235911 27.472549 -61.915167 29.359447 -5.591710 55.517392 1.647820 0.000000 0.000000 0.000000 0.000000 0.000000 0.000000 8.049130 4.121369 61.973498 -14.518058 9.525900 -3.307626 0.226117 -11.236033 -12.894443 0.000000 0.000000 0.000000 -1.607376 -10.346950 58.027469 10.119307 21.645420 -8.581183 36.020152 -19.168961 7.303423 0.000000 0.000000 0.000000
-60.109431 57.182126 344.094715 1.276765 -1.513524 -60.276583 -3.074655 0.943064 60.306300 0.580790 0.447060 0.075082 -0.696868 -3.773052 -0.276414 0.000000 0.000000 0.000000 24.903546 -18.874023 -1.846060 10.699224 -14.565438 -1.603597 -17.969175 3.716298 30.315301 24.659787 -7.316934 -16.795677 0.000000 0.000000 0.000000 0.000000 0.000000 0.000000 3.404146 -5.095436 -3.711991 4.573040 -24.628832 13.691779 14.658338 -52.821144 12.274946 -10.684515 47.770093 12.413642 0.000000 0.000000 0.000000 0.000000 0.000000 0.000000 5.923181 3.458927 61.354387 -13.836415 10.698170 -3.484386 -2.209704 -12.628961 -7.994042 0.000000 0.000000 0.000000 -5.912804 -10.700374 56.667765 11.678498 20.894640 -8.651564 43.757307 -24.592825 9.894723 0.000000 0.000000 0.000000
-59.420972 57.219676 344.785263 2.265852 -2.467647 -59.273741 -3.491648 0.790942 59.361601 0.508882 0.678460 0.098222 -1.113852 -3.268005 -0.406186 0.000000 0.000000 0.000000 28.112025 -19.678077 -2.617897 10.369463 -17.271081 0.731684 -20.332929 0.219934 35.424947 28.236352 -6.306155 -21.687287 0.000000 0.000000 0.000000 0.000000 0.000000 0.000000 2.310904 -2.866303 -4.073747 7.385196 -32.238875 18.381548 7.545203 -42.388341 1.636963 -9.491773 36.969224 16.362034 0.000000 0.000000 0.000000 0.000000 0.000000 0.000000 4.700001 1.506345 60.960015 -12.848663 13.072641 -3.975384 -3.693446 -14.638966 -6.006513 0.000000 0.000000 0.000000 -11.681001 -11.175626 54.667838 12.522257 18.770381 -8.308919 56.579363 -43.921336 23.693143 0.000000 0.000000 0.000000
-58.549794 57.195810 345.749878 3.306358 -3.646793 -57.719304 -3.885567 0.810256 57.905254 0.449196 0.878202 0.134311 -1.468290 -2.663363 -0.662938 0.000000 0.000000 0.000000 29.625453 -19.517407 -3.631430 11.153613 -19.826609 2.735665 -25.315267 0.006223 37.811346 30.764082 -11.556484 -19.177064 0.000000 0.000000 0.000000 0.000000 0.000000 0.000000 0.304432 1.130832 -4.297790 8.886891 -37.296272 21.349038 4.938482 -29.908606 -7.950751 -7.173745 19.958240 21.972532 0.000000 0.000000 0.000000 0.000000 0.000000 0.000000 2.013321 -0.468462 59.701012 -11.005684 14.160254 -4.308861 -4.505733 -15.935605 -3.305901 0.000000 0.000000 0.000000 -19.886165 -11.418317 51.534328 16.192455 13.113315 -6.021965 65.204693 -50.915854 30.247203 0.000000 0.000000 0.000000
-58.029535 57.175182 346.428488 3.887473 -4.389631 -57.351444 -3.949659 0.835430 57.614382 0.364952 1.118267 0.150270 -1.568712 -2.358904 -0.888870 0.000000 0.000000 0.000000 29.054631 -20.214023 -3.174373 14.250703 -19.127982 0.251173 -31.002740 -2.959069 40.629139 33.825421 -13.586373 -18.542592 0.000000 0.000000 0.000000 0.000000 0.000000 0.000000 -1.918645 6.204206 -4.392895 8.771250 -39.868891 21.915876 3.216784 -23.570543 -5.409650 -1.110026 5.883622 20.427756 0.000000 0.000000 0.000000 0.000000 0.000000 0.000000 0.547530 -1.416552 59.508401 -10.253256 15.200123 -4.553856 -4.725183 -16.867233 -0.802185 0.000000 0.000000 0.000000 -27.225705 -11.010990 49.818808 21.106346 4.422669 -1.594200 60.268513 -42.483362 15.763656 0.000000 0.000000 0.000000
-57.623657 57.118721 346.911202 4.304030 -4.791367 -57.720742 -3.694293 0.813040 58.048091 0.368060 1.357641 0.174157 -2.075846 -2.005869 -0.991943 0.000000 0.000000 0.000000 28.812223 -20.415382 -3.243338 12.981560 -17.589440 -0.259017 -32.322103 -5.733432 40.402018 36.918357 -12.661008 -19.873694 0.000000 0.000000 0.000000 0.000000 0.000000 0.000000 -5.173951 10.586090 -3.045752 3.087820 -32.597402 15.264745 -0.367826 -17.012887 2.822212 6.480743 -17.464462 13.849127 0.000000 0.000000 0.000000 0.000000 0.000000 0.000000 -0.631382 -2.591714 60.062393 -9.097134 15.934017 -4.778101 -4.065430 -17.009673 1.394970 0.000000 0.000000 0.000000 -33.707371 -10.612726 48.967086 28.036102 -6.428187 5.544019 48.695787 -34.493358 -0.266901 0.000000 0.000000 0.000000
-57.540408 57.057197 347.014900 4.279279 -4.630320 -58.182619 -3.022264 0.841834 58.530308 0.397574 1.581310 0.187607 -2.553365 -1.940635 -1.014207 0.000000 0.000000 0.000000 28.033995 -20.344072 -3.235999 9.524649 -15.516578 0.018678 -31.872751 -7.502041 37.606581 39.120250 -9.023231 -21.372834 0.000000 0.000000 0.000000 0.000000 0.000000 0.000000 -7.043004 13.555057 -2.540151 0.849114 -26.483783 11.334459 -2.602215 -12.043945 5.295168 9.610567 -31.628617 13.332412 0.000000 0.000000 0.000000 0.000000 0.000000 0.000000 -0.590014 -3.053607 60.608841 -8.651282 16.186987 -4.859673 -3.768884 -16.856350 2.359921 0.000000 0.000000 0.000000 -38.045176 -10.177633 48.560998 34.963285 -13.955617 12.153682 28.113622 -33.217003 -6.054650 0.000000 0.000000 0.000000
-57.514634 56.882433 347.134454 4.253169 -4.604373 -57.975953 -2.664206 0.955211 58.338388 0.375241 1.713056 0.192037 -2.787622 -1.918262 -1.038275 0.000000 0.000000 0.000000 27.700308 -20.193453 -3.345887 4.773269 -13.323939 1.171269 -29.984103 -6.411923 33.122868 39.635119 -7.141881 -20.307437 0.000000 0.000000 0.000000 0.000000 0.000000 0.000000 -7.319711 14.000714 -2.631246 -0.056670 -24.587742 10.714217 -1.916443 -2.572779 2.135311 13.188716 -42.832728 20.467106 0.000000 0.000000 0.000000 0.000000 0.000000 0.000000 0.150965 -3.097865 60.651534 -9.150052 17.118809 -5.037707 -2.531834 -16.496388 3.116592 0.000000 0.000000 0.000000 -43.342974 -9.458826 47.361399 44.692805 -21.121113 21.277528 20.246412 -28.395220 -13.691654 0.000000 0.000000 0.000000
-57.690550 56.684992 347.047557 4.018722 -4.318813 -58.754925 -2.230628 1.035229 59.105210 0.629827 1.699493 0.221911 -3.433211 -1.853956 -0.949176 0.000000 0.000000 0.000000 25.899686 -19.128078 -3.635274 0.475365 -11.175426 2.202143 -25.529507 -3.822619 27.661155 36.559858 -9.509642 -15.321118 0.000000 0.000000 0.000000 0.000000 0.000000 0.000000 -6.244076 12.147856 -3.521216 -0.647971 -24.354327 11.844795 3.708723 12.718927 -7.659962 23.784064 -52.652171 38.143013 0.000000 0.000000 0.000000 0.000000 0.000000 0.000000 1.055769 -2.647424 61.445097 -9.934622 17.269010 -5.046396 -0.728050 -15.967154 1.057227 0.000000 0.000000 0.000000 -47.745797 -9.389516 47.002819 56.565393 -26.877953 32.864816 19.927731 -13.684295 -25.169326 0.000000 0.000000 0.000000
-58.051374 56.546474 346.776719 3.524775 -3.791824 -60.772217 -1.670899 1.120664 61.087454 0.759910 1.637282 0.234655 -3.757912 -1.892388 -0.842831 0.000000 0.000000 0.000000 23.392014 -17.330467 -3.952129 -2.124387 -9.685363 2.757142 -24.126575 -2.509195 22.674597 32.585669 -8.388239 -11.100943 0.000000 0.000000 0.000000 0.000000 0.000000 0.000000 -4.025759 8.172480 -4.545022 -0.117872 -25.911933 14.289325 12.326473 23.048805 -21.099092 33.292886 -51.894728 52.319426 0.000000 0.000000 0.000000 0.000000 0.000000 0.000000 2.777196 -1.732425 63.502377 -11.262254 17.159300 -5.045434 0.141504 -15.244990 -0.039728 0.000000 0.000000 0.000000 -48.256969 -10.018185 48.594727 61.818719 -29.806850 39.163011 17.424781 -2.833428 -29.998597 0.000000 0.000000 0.000000
